<!-- icon666.com - MILLIONS vector ICONS FREE --><svg fill="none" viewBox="0 0 24 24" xmlns="http://www.w3.org/2000/svg"><g clip-rule="evenodd" fill="rgb(0,0,0)" fill-rule="evenodd"><path d="m7 4c-.55228 0-1 .44772-1 1v14c0 .5523.44772 1 1 1h10c.5523 0 1-.4477 1-1v-10.58579l-4.4142-4.41421zm-3 1c0-1.65685 1.34315-3 3-3h7c.2652 0 .5196.10536.7071.29289l5 5c.1875.18754.2929.44189.2929.70711v11c0 1.6569-1.3431 3-3 3h-10c-1.65685 0-3-1.3431-3-3z" fill="rgb(0,0,0)" style="fill: rgb(255, 255, 255);"></path><path d="m13 2c.5523 0 1 .44772 1 1v5h5c.5523 0 1 .44771 1 1 0 .55228-.4477 1-1 1h-5c-1.1046 0-2-.89543-2-2v-5c0-.55228.4477-1 1-1z" fill="rgb(0,0,0)" style="fill: rgb(255, 255, 255);"></path><path d="m12.7071 18.7071c-.3905.3905-1.0237.3905-1.4142 0l-3.00001-3c-.39052-.3905-.39052-1.0237 0-1.4142.39053-.3905 1.02369-.3905 1.41422 0l1.29289 1.2929v-3.5858c0-.5523.4477-1 1-1s1 .4477 1 1v3.5858l1.2929-1.2929c.3905-.3905 1.0237-.3905 1.4142 0s.3905 1.0237 0 1.4142z" fill="rgb(0,0,0)" style="fill: rgb(255, 255, 255);"></path></g></svg>