<!-- icon666.com - MILLIONS vector ICONS FREE --><svg id="Layer" viewBox="0 0 24 24" xmlns="http://www.w3.org/2000/svg"><path id="file-upload" d="m20.53 8.47-6-6a.747.747 0 0 0 -.53-.22h-6a3.383 3.383 0 0 0 -3.75 3.75v12a3.383 3.383 0 0 0 3.75 3.75h9a3.383 3.383 0 0 0 3.75-3.75v-9a.747.747 0 0 0 -.22-.53zm-5.78-3.659 3.439 3.439h-1.189c-1.577 0-2.25-.673-2.25-2.25zm2.25 15.439h-9c-1.577 0-2.25-.673-2.25-2.25v-12c0-1.577.673-2.25 2.25-2.25h5.25v2.25a3.383 3.383 0 0 0 3.75 3.75h2.25v8.25c0 1.577-.673 2.25-2.25 2.25zm-3.47-6.78a.75.75 0 1 1 -1.06 1.06l-.72-.719v3.189a.75.75 0 0 1 -1.5 0v-3.189l-.72.719a.75.75 0 0 1 -1.06-1.06l2-2a.771.771 0 0 1 .244-.162.751.751 0 0 1 .574 0 .771.771 0 0 1 .244.162z" fill="rgb(0,0,0)" style="fill: rgb(255, 255, 255);"></path></svg>